<svg width="240" height="240" viewBox="0 0 240 240" fill="none" xmlns="http://www.w3.org/2000/svg">
<path d="M2.5 2.5H237.5V237.5H2.5V2.5Z" fill="white" stroke="#84AB3B" stroke-width="5"/>
<path d="M28.5566 58.2852C28.5566 57.2891 28.2051 56.5273 27.502 56C26.7988 55.4609 25.5332 54.8984 23.7051 54.3125C21.877 53.7148 20.4297 53.1289 19.3633 52.5547C16.457 50.9844 15.0039 48.8691 15.0039 46.209C15.0039 44.8262 15.3906 43.5957 16.1641 42.5176C16.9492 41.4277 18.0684 40.5781 19.5215 39.9688C20.9863 39.3594 22.627 39.0547 24.4434 39.0547C26.2715 39.0547 27.9004 39.3887 29.3301 40.0566C30.7598 40.7129 31.8672 41.6445 32.6523 42.8516C33.4492 44.0586 33.8477 45.4297 33.8477 46.9648H28.5742C28.5742 45.793 28.2051 44.8848 27.4668 44.2402C26.7285 43.584 25.6914 43.2559 24.3555 43.2559C23.0664 43.2559 22.0645 43.5312 21.3496 44.082C20.6348 44.6211 20.2773 45.3359 20.2773 46.2266C20.2773 47.0586 20.6934 47.7559 21.5254 48.3184C22.3691 48.8809 23.6055 49.4082 25.2344 49.9004C28.2344 50.8027 30.4199 51.9219 31.791 53.2578C33.1621 54.5938 33.8477 56.2578 33.8477 58.25C33.8477 60.4648 33.0098 62.2051 31.334 63.4707C29.6582 64.7246 27.4023 65.3516 24.5664 65.3516C22.5977 65.3516 20.8047 64.9941 19.1875 64.2793C17.5703 63.5527 16.334 62.5625 15.4785 61.3086C14.6348 60.0547 14.2129 58.6016 14.2129 56.9492H19.5039C19.5039 59.7734 21.1914 61.1855 24.5664 61.1855C25.8203 61.1855 26.7988 60.9336 27.502 60.4297C28.2051 59.9141 28.5566 59.1992 28.5566 58.2852ZM43.1816 41.3047V45.9805H46.4336V49.707H43.1816V59.1992C43.1816 59.9023 43.3164 60.4062 43.5859 60.7109C43.8555 61.0156 44.3711 61.168 45.1328 61.168C45.6953 61.168 46.1934 61.127 46.627 61.0449V64.8945C45.6309 65.1992 44.6055 65.3516 43.5508 65.3516C39.9883 65.3516 38.1719 63.5527 38.1016 59.9551V49.707H35.3242V45.9805H38.1016V41.3047H43.1816ZM58.0176 65.3516C55.2285 65.3516 52.9551 64.4961 51.1973 62.7852C49.4512 61.0742 48.5781 58.7949 48.5781 55.9473V55.4551C48.5781 53.5449 48.9473 51.8398 49.6855 50.3398C50.4238 48.8281 51.4668 47.668 52.8145 46.8594C54.1738 46.0391 55.7207 45.6289 57.4551 45.6289C60.0566 45.6289 62.1016 46.4492 63.5898 48.0898C65.0898 49.7305 65.8398 52.0566 65.8398 55.0684V57.1426H53.7285C53.8926 58.3848 54.3848 59.3809 55.2051 60.1309C56.0371 60.8809 57.0859 61.2559 58.3516 61.2559C60.3086 61.2559 61.8379 60.5469 62.9395 59.1289L65.4355 61.9238C64.6738 63.002 63.6426 63.8457 62.3418 64.4551C61.041 65.0527 59.5996 65.3516 58.0176 65.3516ZM57.4375 49.7422C56.4297 49.7422 55.6094 50.082 54.9766 50.7617C54.3555 51.4414 53.957 52.4141 53.7812 53.6797H60.8477V53.2754C60.8242 52.1504 60.5195 51.2832 59.9336 50.6738C59.3477 50.0527 58.5156 49.7422 57.4375 49.7422ZM75.6484 57.3711L73.8203 59.1992V65H68.7402V38H73.8203V52.959L74.8047 51.6934L79.6738 45.9805H85.7734L78.9004 53.9082L86.3711 65H80.5352L75.6484 57.3711ZM93.332 65H88.2344V38H93.332V65ZM96.7422 55.3145C96.7422 53.4277 97.1055 51.7461 97.832 50.2695C98.5586 48.793 99.6016 47.6504 100.961 46.8418C102.332 46.0332 103.92 45.6289 105.725 45.6289C108.291 45.6289 110.383 46.4141 112 47.9844C113.629 49.5547 114.537 51.6875 114.725 54.3828L114.76 55.6836C114.76 58.6016 113.945 60.9453 112.316 62.7148C110.688 64.4727 108.502 65.3516 105.76 65.3516C103.018 65.3516 100.826 64.4727 99.1855 62.7148C97.5566 60.957 96.7422 58.5664 96.7422 55.543V55.3145ZM101.822 55.6836C101.822 57.4883 102.162 58.8711 102.842 59.832C103.521 60.7812 104.494 61.2559 105.76 61.2559C106.99 61.2559 107.951 60.7871 108.643 59.8496C109.334 58.9004 109.68 57.3887 109.68 55.3145C109.68 53.5449 109.334 52.1738 108.643 51.2012C107.951 50.2285 106.979 49.7422 105.725 49.7422C104.482 49.7422 103.521 50.2285 102.842 51.2012C102.162 52.1621 101.822 53.6562 101.822 55.6836ZM135.01 55.666C135.01 58.5957 134.342 60.9453 133.006 62.7148C131.682 64.4727 129.889 65.3516 127.627 65.3516C125.705 65.3516 124.152 64.6836 122.969 63.3477V72.3125H117.889V45.9805H122.6L122.775 47.8438C124.006 46.3672 125.611 45.6289 127.592 45.6289C129.936 45.6289 131.758 46.4961 133.059 48.2305C134.359 49.9648 135.01 52.3555 135.01 55.4023V55.666ZM129.93 55.2969C129.93 53.5273 129.613 52.1621 128.98 51.2012C128.359 50.2402 127.451 49.7598 126.256 49.7598C124.662 49.7598 123.566 50.3691 122.969 51.5879V59.375C123.59 60.6289 124.697 61.2559 126.291 61.2559C128.717 61.2559 129.93 59.2695 129.93 55.2969ZM149.195 65C148.961 64.543 148.791 63.9746 148.686 63.2949C147.455 64.666 145.855 65.3516 143.887 65.3516C142.023 65.3516 140.477 64.8125 139.246 63.7344C138.027 62.6562 137.418 61.2969 137.418 59.6562C137.418 57.6406 138.162 56.0938 139.65 55.0156C141.15 53.9375 143.312 53.3926 146.137 53.3809H148.475V52.291C148.475 51.4121 148.246 50.709 147.789 50.1816C147.344 49.6543 146.635 49.3906 145.662 49.3906C144.807 49.3906 144.133 49.5957 143.641 50.0059C143.16 50.416 142.92 50.9785 142.92 51.6934H137.84C137.84 50.5918 138.18 49.5723 138.859 48.6348C139.539 47.6973 140.5 46.9648 141.742 46.4375C142.984 45.8984 144.379 45.6289 145.926 45.6289C148.27 45.6289 150.127 46.2207 151.498 47.4043C152.881 48.5762 153.572 50.2285 153.572 52.3613V60.6055C153.584 62.4102 153.836 63.7754 154.328 64.7012V65H149.195ZM144.994 61.4668C145.744 61.4668 146.436 61.3027 147.068 60.9746C147.701 60.6348 148.17 60.1836 148.475 59.6211V56.3516H146.576C144.033 56.3516 142.68 57.2305 142.516 58.9883L142.498 59.2871C142.498 59.9199 142.721 60.4414 143.166 60.8516C143.611 61.2617 144.221 61.4668 144.994 61.4668ZM164.383 57.3711L162.555 59.1992V65H157.475V38H162.555V52.959L163.539 51.6934L168.408 45.9805H174.508L167.635 53.9082L175.105 65H169.27L164.383 57.3711ZM185.107 65.3516C182.318 65.3516 180.045 64.4961 178.287 62.7852C176.541 61.0742 175.668 58.7949 175.668 55.9473V55.4551C175.668 53.5449 176.037 51.8398 176.775 50.3398C177.514 48.8281 178.557 47.668 179.904 46.8594C181.264 46.0391 182.811 45.6289 184.545 45.6289C187.146 45.6289 189.191 46.4492 190.68 48.0898C192.18 49.7305 192.93 52.0566 192.93 55.0684V57.1426H180.818C180.982 58.3848 181.475 59.3809 182.295 60.1309C183.127 60.8809 184.176 61.2559 185.441 61.2559C187.398 61.2559 188.928 60.5469 190.029 59.1289L192.525 61.9238C191.764 63.002 190.732 63.8457 189.432 64.4551C188.131 65.0527 186.689 65.3516 185.107 65.3516ZM184.527 49.7422C183.52 49.7422 182.699 50.082 182.066 50.7617C181.445 51.4414 181.047 52.4141 180.871 53.6797H187.938V53.2754C187.914 52.1504 187.609 51.2832 187.023 50.6738C186.438 50.0527 185.605 49.7422 184.527 49.7422ZM201.912 41.3047V45.9805H205.164V49.707H201.912V59.1992C201.912 59.9023 202.047 60.4062 202.316 60.7109C202.586 61.0156 203.102 61.168 203.863 61.168C204.426 61.168 204.924 61.127 205.357 61.0449V64.8945C204.361 65.1992 203.336 65.3516 202.281 65.3516C198.719 65.3516 196.902 63.5527 196.832 59.9551V49.707H194.055V45.9805H196.832V41.3047H201.912ZM208.539 52.4141L210.016 39.4062H224.359V43.6426H214.182L213.549 49.1445C214.756 48.5 216.039 48.1777 217.398 48.1777C219.836 48.1777 221.746 48.9336 223.129 50.4453C224.512 51.957 225.203 54.0723 225.203 56.791C225.203 58.4434 224.852 59.9258 224.148 61.2383C223.457 62.5391 222.461 63.5527 221.16 64.2793C219.859 64.9941 218.324 65.3516 216.555 65.3516C215.008 65.3516 213.572 65.041 212.248 64.4199C210.924 63.7871 209.875 62.9023 209.102 61.7656C208.34 60.6289 207.936 59.334 207.889 57.8809H212.916C213.021 58.9473 213.391 59.7793 214.023 60.377C214.668 60.9629 215.506 61.2559 216.537 61.2559C217.686 61.2559 218.57 60.8457 219.191 60.0254C219.812 59.1934 220.123 58.0215 220.123 56.5098C220.123 55.0566 219.766 53.9434 219.051 53.1699C218.336 52.3965 217.322 52.0098 216.01 52.0098C214.803 52.0098 213.824 52.3262 213.074 52.959L212.582 53.416L208.539 52.4141Z" fill="#84AB3B"/>
<path d="M14.9043 224V202.672H22.375C24.9629 202.672 26.9258 203.17 28.2637 204.166C29.6016 205.152 30.2705 206.603 30.2705 208.517C30.2705 209.562 30.002 210.484 29.4648 211.285C28.9277 212.076 28.1807 212.657 27.2236 213.028C28.3174 213.302 29.1768 213.854 29.8018 214.684C30.4365 215.514 30.7539 216.529 30.7539 217.73C30.7539 219.781 30.0996 221.334 28.791 222.389C27.4824 223.443 25.6172 223.98 23.1953 224H14.9043ZM19.2988 214.713V220.47H23.0635C24.0986 220.47 24.9043 220.226 25.4805 219.737C26.0664 219.239 26.3594 218.556 26.3594 217.687C26.3594 215.733 25.3486 214.742 23.3271 214.713H19.2988ZM19.2988 211.607H22.5508C24.7676 211.568 25.876 210.685 25.876 208.956C25.876 207.989 25.5928 207.296 25.0264 206.876C24.4697 206.446 23.5859 206.231 22.375 206.231H19.2988V211.607ZM43.3369 208.15H47.5703V224H43.3369V214.215L38.0342 224H33.7861V208.15H38.0342V217.921L43.3369 208.15ZM51.0273 220.587C51.9844 219.571 52.6338 218.565 52.9756 217.569C53.3174 216.573 53.5078 215.162 53.5469 213.336L53.6641 208.15H65.3242V220.587H67.6094V228.761H63.376V224H53.9863V228.761H49.665V220.587H51.0273ZM56.0225 220.587H61.1055V211.651H57.8096L57.7803 213.556C57.6924 216.466 57.1064 218.81 56.0225 220.587ZM85.0117 218.126H83.0928V224H78.8594V218.126H76.9697L73.8203 224H68.708L73.7031 215.709L68.7666 208.15H74.0107L77.3066 214.068H78.8594V208.15H83.0928V214.068H84.6748L87.9854 208.15H93.2295L88.3223 215.606L93.3613 224H88.1611L85.0117 218.126ZM102.399 224.293C100.075 224.293 98.1807 223.58 96.7158 222.154C95.2607 220.729 94.5332 218.829 94.5332 216.456V216.046C94.5332 214.454 94.8408 213.033 95.4561 211.783C96.0713 210.523 96.9404 209.557 98.0635 208.883C99.1963 208.199 100.485 207.857 101.931 207.857C104.099 207.857 105.803 208.541 107.043 209.908C108.293 211.275 108.918 213.214 108.918 215.724V217.452H98.8252C98.9619 218.487 99.3721 219.317 100.056 219.942C100.749 220.567 101.623 220.88 102.678 220.88C104.309 220.88 105.583 220.289 106.501 219.107L108.581 221.437C107.946 222.335 107.087 223.038 106.003 223.546C104.919 224.044 103.718 224.293 102.399 224.293ZM101.916 211.285C101.076 211.285 100.393 211.568 99.8652 212.135C99.3477 212.701 99.0156 213.512 98.8691 214.566H104.758V214.229C104.738 213.292 104.484 212.569 103.996 212.062C103.508 211.544 102.814 211.285 101.916 211.285ZM124.313 211.549H119.23V224H114.982V211.549H109.987V208.15H124.313V211.549ZM142.067 217.994H139.24L138.186 224H135.505L136.56 217.994H133.234V215.475H136.999L137.731 211.314H134.333V208.766H138.186L139.255 202.672H141.921L140.852 208.766H143.693L144.763 202.672H147.443L146.374 208.766H149.582V211.314H145.92L145.188 215.475H148.469V217.994H144.748L143.693 224H141.013L142.067 217.994ZM139.68 215.475H142.507L143.239 211.314H140.397L139.68 215.475ZM166.237 224H151.618V221.1L158.518 213.746C159.465 212.711 160.163 211.808 160.612 211.036C161.071 210.265 161.301 209.532 161.301 208.839C161.301 207.892 161.062 207.149 160.583 206.612C160.104 206.065 159.421 205.792 158.532 205.792C157.575 205.792 156.818 206.124 156.262 206.788C155.715 207.442 155.441 208.307 155.441 209.381H151.193C151.193 208.082 151.501 206.896 152.116 205.821C152.741 204.747 153.62 203.907 154.753 203.302C155.886 202.687 157.17 202.379 158.605 202.379C160.803 202.379 162.507 202.906 163.718 203.961C164.938 205.016 165.549 206.505 165.549 208.429C165.549 209.483 165.275 210.558 164.729 211.651C164.182 212.745 163.244 214.02 161.916 215.475L157.067 220.587H166.237V224Z" fill="#84AB3B"/>
<rect x="151" y="200" width="20" height="26" fill="white"/>
<path d="M161.205 222H157.079V208.865L153.026 210.049V206.924L160.827 204.227H161.205V222ZM166.808 213.309L167.895 204.227H178.283V207.425H171.239L170.836 210.953C171.129 210.782 171.512 210.631 171.984 210.501C172.464 210.371 172.932 210.306 173.388 210.306C175.154 210.306 176.509 210.831 177.453 211.88C178.405 212.922 178.881 214.387 178.881 216.275C178.881 217.414 178.625 218.448 178.112 219.375C177.607 220.295 176.895 221.003 175.976 221.5C175.056 221.996 173.97 222.244 172.716 222.244C171.601 222.244 170.556 222.016 169.579 221.561C168.603 221.097 167.838 220.466 167.284 219.668C166.731 218.863 166.458 217.955 166.466 216.946H170.592C170.633 217.597 170.84 218.114 171.215 218.497C171.589 218.879 172.082 219.07 172.692 219.07C174.075 219.07 174.767 218.045 174.767 215.994C174.767 214.098 173.921 213.15 172.228 213.15C171.268 213.15 170.552 213.459 170.08 214.078L166.808 213.309Z" fill="#84AB3B"/>
</svg>
